Coordinates
version=1
nRows=12
nColumns=24
inDegrees=yes

Units are S.I. units (second, meters, Newtons, ...)
Angles are in degrees.

endheader
time	pelvis_tilt	pelvis_list	pelvis_rotation	pelvis_tx	pelvis_ty	pelvis_tz	hip_flexion_r	hip_adduction_r	hip_rotation_r	knee_angle_r	ankle_angle_r	subtalar_angle_r	mtp_angle_r	hip_flexion_l	hip_adduction_l	hip_rotation_l	knee_angle_l	ankle_angle_l	subtalar_angle_l	mtp_angle_l	lumbar_extension	lumbar_bending	lumbar_rotation
      2.71000000	     62.06497500	     -8.98285840	     -5.09432073	      0.41868061	      1.04701443	     -0.34769062	     15.74924176	      1.62842169	     10.19676903	    -41.35691455	      3.20661627	     40.10025165	      0.00000000	      2.71190298	    -19.67361625	      1.75305826	    -64.53015999	     64.84518800	     31.86335285	      0.00000000	      0.00000000	      0.00000000	      0.00000000
      2.72000000	     62.01228571	     -8.96691272	     -5.07994085	      0.41794404	      1.04776316	     -0.34776713	     15.65769166	      1.59760509	     10.31811433	    -41.55675717	      3.06371848	     40.21585567	      0.00000000	      2.94544954	    -19.60901111	      1.80316226	    -64.69669435	     64.63689315	     31.72553835	      0.00000000	      0.00000000	      0.00000000	      0.00000000
      2.73000000	     61.98745392	     -8.95350093	     -5.07026412	      0.41745220	      1.04837009	     -0.34780514	     15.68346937	      1.56782360	     10.37299854	    -42.03210695	      2.81449521	     40.28286664	      0.00000000	      3.10241630	    -19.54575282	      1.83945467	    -64.84273048	     64.42469600	     31.60431909	      0.00000000	      0.00000000	      0.00000000	      0.00000000
      2.74000000	     61.97086620	     -8.93967719	     -5.06659114	      0.41746179	      1.04850774	     -0.34779504	     15.81376749	      1.53331869	     10.36186803	    -42.71834039	      2.54729200	     40.29971784	      0.00000000	      3.16497906	    -19.50423958	      1.86293223	    -64.93639535	     64.24538892	     31.51658131	      0.00000000	      0.00000000	      0.00000000	      0.00000000
      2.75000000	     61.94500336	     -8.92374823	     -5.06510887	      0.41787626	      1.04804337	     -0.34796211	     15.99378340	      1.49244213	     10.31301725	    -43.47062848	      2.35102712	     40.27854405	      0.00000000	      3.14669378	    -19.49237090	      1.87431093	    -64.96937165	     64.12325428	     31.47173849	      0.00000000	      0.00000000	      0.00000000	      0.00000000
      2.76000000	     61.91247486	     -8.90844864	     -5.06669353	      0.41836785	      1.04725509	     -0.34829882	     16.14365532	      1.45005074	     10.26291182	    -44.14397509	      2.28729892	     40.24078454	      0.00000000	      3.09315973	    -19.49794106	      1.87108299	    -64.95757407	     64.06572997	     31.47013163	      0.00000000	      0.00000000	      0.00000000	      0.00000000
      2.77000000	     61.89647972	     -8.89861405	     -5.07887360	      0.41855453	      1.04690179	     -0.34843104	     16.19436477	      1.41634735	     10.23613372	    -44.65591063	      2.37519333	     40.20984389	      0.00000000	      3.05867719	    -19.49872538	      1.85018569	    -64.92542989	     64.06529434	     31.50411338	      0.00000000	      0.00000000	      0.00000000	      0.00000000
      2.78000000	     61.91156448	     -8.89600588	     -5.10168058	      0.41835926	      1.04734708	     -0.34815236	     16.12808447	      1.39755256	     10.23771092	    -45.00733004	      2.59148513	     40.20318606	      0.00000000	      3.05682493	    -19.48668685	      1.81503414	    -64.88623515	     64.10513496	     31.56105186	      0.00000000	      0.00000000	      0.00000000	      0.00000000
      2.79000000	     61.94442208	     -8.90048209	     -5.11904446	      0.41809837	      1.04803135	     -0.34778024	     15.98999578	      1.38697526	     10.25811100	    -45.26357708	      2.88318449	     40.22660902	      0.00000000	      3.04440031	    -19.47729211	      1.77815065	    -64.83477903	     64.16474654	     31.62670849	      0.00000000	      0.00000000	      0.00000000	      0.00000000
      2.80000000	     61.97136956	     -8.91327064	     -5.11275643	      0.41807475	      1.04821418	     -0.34778551	     15.85537533	      1.36981044	     10.28154475	    -45.51400170	      3.18663547	     40.27289165	      0.00000000	      2.97043025	    -19.49042680	      1.75383991	    -64.75878946	     64.22304036	     31.68777904	      0.00000000	      0.00000000	      0.00000000	      0.00000000
      2.81000000	     61.98723644	     -8.93331170	     -5.08511587	      0.41825605	      1.04791978	     -0.34817038	     15.77702882	      1.33816546	     10.29144505	    -45.83131313	      3.44659027	     40.32518782	      0.00000000	      2.84030040	    -19.52494921	      1.74719121	    -64.65919990	     64.25964955	     31.73356221	      0.00000000	      0.00000000	      0.00000000	      0.00000000
      2.82000000	     62.00427825	     -8.95095862	     -5.05977001	      0.41845646	      1.04767632	     -0.34849317	     15.76143950	      1.29731311	     10.27533534	    -46.24938754	      3.62845086	     40.36356257	      0.00000000	      2.71672315	    -19.55838484	      1.75094234	    -64.56034076	     64.25705796	     31.75755124	      0.00000000	      0.00000000	      0.00000000	      0.00000000
